<svg height="512" viewBox="0 0 128 128" width="512" xmlns="http://www.w3.org/2000/svg" xmlns:xlink="http://www.w3.org/1999/xlink"><linearGradient id="a" gradientUnits="userSpaceOnUse" x1="108.014" x2="19.986" y1="130.554" y2="42.527"><stop offset="0" stop-color="#f5502f"/><stop offset="1" stop-color="#f9d42f"/></linearGradient><path d="m35.125 77.189a1.749 1.749 0 0 1 -1.75 1.75h-6a1.75 1.75 0 0 1 0-3.5h6a1.75 1.75 0 0 1 1.75 1.75zm88.046 35.831a14.5 14.5 0 0 1 -13.906 10.229h-90.53a14.5 14.5 0 0 1 -13.906-10.229 1.75 1.75 0 0 1 1.671-2.271h7.1v-20.637a4.663 4.663 0 0 1 -3-4.43v-8.493a7.759 7.759 0 0 1 7.75-7.75h4.25v-9.926a16.466 16.466 0 0 1 -1.313-1l-1.062-.9a1.749 1.749 0 0 1 -.621-1.337v-11.4a4.755 4.755 0 0 1 4.75-4.75h6.984a4.66 4.66 0 0 1 -.188-1.25 4.755 4.755 0 0 1 4.75-4.75 4.7 4.7 0 0 1 1.717.334 7.781 7.781 0 0 1 4.836-4.649 14.829 14.829 0 0 0 -.589-1.483 1.75 1.75 0 0 1 3.176-1.471 17.965 17.965 0 0 1 .969 2.657 7.75 7.75 0 0 1 6.027 10.612h7.214v-13.065a1.75 1.75 0 0 1 1.75-1.75h1.25v-2.753a6.26 6.26 0 0 1 -4.5-6c0-4.907 4.409-10.558 4.859-11.123a1.752 1.752 0 0 1 2.751-.035c.2.247 4.89 6.1 4.89 11.163a6.26 6.26 0 0 1 -4.5 6v2.753h1.25a1.75 1.75 0 0 1 1.75 1.75v13.062h7.218a7.75 7.75 0 0 1 6.032-10.612 17.965 17.965 0 0 1 .969-2.657 1.75 1.75 0 0 1 3.171 1.471 14.829 14.829 0 0 0 -.589 1.483 7.781 7.781 0 0 1 4.836 4.649 4.7 4.7 0 0 1 1.717-.334 4.755 4.755 0 0 1 4.75 4.75 4.66 4.66 0 0 1 -.188 1.25h6.984a4.755 4.755 0 0 1 4.75 4.75v11.4a1.749 1.749 0 0 1 -.621 1.337l-1.063.9a16.5 16.5 0 0 1 -1.312 1v4.361a1.75 1.75 0 1 1 -3.5 0v-2.731a12.761 12.761 0 0 1 -3.474.468c-5 0-7.662-2.479-9.8-4.472-2.036-1.893-3.8-3.528-7.416-3.528s-5.379 1.635-7.414 3.528c-2.143 1.993-4.808 4.472-9.806 4.472s-7.669-2.484-9.8-4.48c-2.121-1.964-3.8-3.52-7.416-3.52s-5.371 1.635-7.4 3.528c-2.142 1.993-4.807 4.472-9.806 4.472a12.7 12.7 0 0 1 -3.464-.467v8.293h83.542a7.759 7.759 0 0 1 7.75 7.75v8.543a4.709 4.709 0 0 1 -3 4.372v20.645h7.1a1.75 1.75 0 0 1 1.671 2.271zm-59.171-93.709a2.752 2.752 0 0 0 2.75-2.75c0-2.246-1.477-5.079-2.748-7.049-1.273 1.973-2.752 4.811-2.752 7.049a2.752 2.752 0 0 0 2.75 2.75zm26.854 19.567a1.25 1.25 0 1 0 1.25-1.25 1.252 1.252 0 0 0 -1.25 1.25zm-10.765 1.25h6.117c.023-.028.039-.058.064-.085a4.238 4.238 0 0 0 -1.37-6.724c0 .087-.016.176-.016.262a1.75 1.75 0 0 1 -3.5 0c0-.093.015-.187.017-.28a4.234 4.234 0 0 0 -1.314 6.827zm-17.339 0h2.5v-11.317h-2.5zm-22.136-2.955a4.216 4.216 0 0 0 1.2 2.955h6.093a4.234 4.234 0 0 0 -1.307-6.828c0 .093.017.187.017.28a1.75 1.75 0 0 1 -3.5 0c0-.086-.014-.175-.016-.262a4.248 4.248 0 0 0 -2.487 3.855zm-4.714 2.955a1.25 1.25 0 1 0 -1.25-1.25 1.252 1.252 0 0 0 1.25 1.25zm-12.8 15.335.442.374a8.588 8.588 0 0 0 6.018 2.276c3.622 0 5.383-1.638 7.421-3.535 2.138-1.989 4.8-4.465 9.789-4.465s7.545 2.368 9.8 4.457c2.036 1.9 3.79 3.543 7.42 3.543s5.382-1.637 7.42-3.534c2.142-1.991 4.8-4.466 9.8-4.466s7.659 2.476 9.8 4.464c2.04 1.9 3.8 3.536 7.421 3.536a8.6 8.6 0 0 0 6.027-2.275l.443-.375v-10.585a1.25 1.25 0 0 0 -1.25-1.25h-79.301a1.25 1.25 0 0 0 -1.25 1.25zm95.735 58.786h-80.752a1.75 1.75 0 0 1 0-3.5h72.817v-19.343a20.188 20.188 0 0 0 -2.666 2.207c-2.262 2.095-4.825 4.466-9.808 4.466s-7.662-2.479-9.8-4.473a13.081 13.081 0 0 0 -4.273-3.006 1.751 1.751 0 0 1 1.214-3.284 16.231 16.231 0 0 1 5.433 3.719c2.049 1.905 3.81 3.544 7.43 3.544s5.381-1.637 7.428-3.531a15.056 15.056 0 0 1 6.322-4.034 1.737 1.737 0 0 1 .47-.065 1.226 1.226 0 0 0 1.25-1.217v-8.543a4.255 4.255 0 0 0 -4.25-4.25h-91.3a4.255 4.255 0 0 0 -4.25 4.25v8.511a1.225 1.225 0 0 0 .351.891 1.209 1.209 0 0 0 .865.361 1.759 1.759 0 0 1 .463.063 14.961 14.961 0 0 1 6.369 4.041c2.036 1.89 3.792 3.524 7.412 3.524s5.384-1.642 7.44-3.54c2.134-1.985 4.793-4.461 9.773-4.461s7.543 2.377 9.806 4.474c2.037 1.892 3.794 3.526 7.414 3.526s5.379-1.635 7.425-3.528a19.87 19.87 0 0 1 3.819-2.985 1.75 1.75 0 1 1 1.709 3.055 16.627 16.627 0 0 0 -3.147 2.5c-2.263 2.094-4.823 4.463-9.806 4.463s-7.657-2.474-9.8-4.461-3.819-3.539-7.425-3.539-5.359 1.634-7.392 3.526c-2.269 2.1-4.835 4.474-9.818 4.474s-7.657-2.474-9.794-4.461a19.764 19.764 0 0 0 -2.67-2.207v19.338h5.935a1.75 1.75 0 1 1 0 3.5h-13.864a11.013 11.013 0 0 0 9.57 5.5h90.53a11.013 11.013 0 0 0 9.57-5.505zm-86.335-3.5h-3.688a1.75 1.75 0 0 0 0 3.5h3.688a1.75 1.75 0 0 0 0-3.5z" fill="url(#a)"/></svg>